<svg width="21" height="17" viewBox="0 0 21 17" fill="none" xmlns="http://www.w3.org/2000/svg">
<g clip-path="url(#clip0_1_260)">
<path d="M19.9761 0.357178H13.9761C13.5641 0.357178 12.9871 0.596178 12.6961 0.887178L5.2571 8.32618C5.11683 8.4671 5.03809 8.65784 5.03809 8.85668C5.03809 9.05551 5.11683 9.24625 5.2571 9.38718L11.6961 15.8262C11.837 15.9664 12.0278 16.0452 12.2266 16.0452C12.4254 16.0452 12.6162 15.9664 12.7571 15.8262L20.1961 8.38718C20.4881 8.09518 20.7261 7.51918 20.7261 7.10718V1.10718C20.7256 0.908428 20.6464 0.717969 20.5058 0.577431C20.3653 0.436893 20.1749 0.357706 19.9761 0.357178V0.357178ZM16.2261 6.35718C16.0291 6.35711 15.8339 6.31824 15.6519 6.24277C15.4699 6.1673 15.3045 6.05672 15.1652 5.91734C15.0259 5.77796 14.9155 5.61251 14.8401 5.43043C14.7648 5.24836 14.726 5.05323 14.7261 4.85618C14.7262 4.65913 14.765 4.46402 14.8405 4.282C14.916 4.09998 15.0266 3.9346 15.1659 3.79531C15.3053 3.65602 15.4708 3.54555 15.6528 3.47021C15.8349 3.39486 16.0301 3.35611 16.2271 3.35618C16.6251 3.35631 17.0067 3.51453 17.288 3.79602C17.5693 4.07751 17.7272 4.45922 17.7271 4.85718C17.727 5.25514 17.5688 5.63674 17.2873 5.91805C17.0058 6.19935 16.6241 6.35731 16.2261 6.35718Z" fill="white"/>
<path d="M2.7261 8.85718L11.2261 0.357178H9.9761C9.5641 0.357178 8.9871 0.596178 8.6961 0.887178L1.2571 8.32618C1.11683 8.4671 1.03809 8.65784 1.03809 8.85668C1.03809 9.05551 1.11683 9.24625 1.2571 9.38718L7.6961 15.8262C7.83703 15.9664 8.02777 16.0452 8.2266 16.0452C8.42543 16.0452 8.61618 15.9664 8.7571 15.8262L9.2271 15.3562L2.7271 8.85618L2.7261 8.85718Z" fill="white"/>
</g>
<defs>
<clipPath id="clip0_1_260">
<rect width="20" height="16" fill="white" transform="translate(0.726074 0.357178)"/>
</clipPath>
</defs>
</svg>
