<svg xmlns="http://www.w3.org/2000/svg" xmlns:xlink="http://www.w3.org/1999/xlink" width="1080" zoomAndPan="magnify" viewBox="0 0 810 809.999993" height="1080" preserveAspectRatio="xMidYMid meet" version="1.0"><defs><g/><clipPath id="f0a00b9006"><path d="M 289 189.113281 L 541.726562 189.113281 L 541.726562 486.863281 L 289 486.863281 Z M 289 189.113281 " clip-rule="nonzero"/></clipPath><clipPath id="82b1b7c99e"><path d="M 267.976562 189.113281 L 419 189.113281 L 419 454 L 267.976562 454 Z M 267.976562 189.113281 " clip-rule="nonzero"/></clipPath></defs><g clip-path="url(#f0a00b9006)"><path fill="#ffffff" d="M 486.394531 331.117188 C 507.625 319.226562 525.460938 300.542969 525.460938 266.996094 L 525.460938 266.144531 C 525.460938 245.761719 518.667969 229.203125 505.078125 215.613281 C 488.09375 198.628906 461.339844 189.285156 427.367188 189.285156 L 426.503906 189.285156 L 382.335938 246.613281 L 417.601562 246.613281 C 445.203125 246.613281 460.492188 257.652344 460.492188 277.1875 L 460.492188 278.035156 C 460.492188 298.835938 444.289062 308.328125 418.277344 309.363281 L 369.464844 363.816406 L 428.640625 363.816406 C 462.191406 363.816406 477.050781 376.128906 477.050781 396.089844 L 477.050781 396.9375 C 477.050781 419.019531 459.640625 429.210938 430.765625 429.210938 L 353.054688 429.210938 L 353.054688 382.121094 L 289.359375 453.179688 L 289.359375 486.539062 L 430.765625 486.539062 C 497.859375 486.539062 542.023438 459.359375 542.023438 405.007812 L 542.023438 404.15625 C 542.023438 364.238281 520.792969 344.28125 486.394531 331.117188 Z M 486.394531 331.117188 " fill-opacity="1" fill-rule="nonzero"/></g><g clip-path="url(#82b1b7c99e)"><path fill="#2168d4" d="M 418.101562 298.351562 L 350.480469 275.726562 L 417.1875 189.152344 L 318.386719 189.152344 L 267.976562 310.761719 L 339.015625 334.527344 C 320.976562 376.152344 278.808594 453.738281 278.808594 453.738281 Z M 418.101562 298.351562 " fill-opacity="1" fill-rule="nonzero"/></g><g fill="#ffffff" fill-opacity="1"><g transform="translate(148.792707, 601.03259)"><g><path d="M 49.34375 -10.265625 L 49.34375 0 L 6.546875 0 L 6.546875 -55.25 L 48.3125 -55.25 L 48.3125 -45 L 19.265625 -45 L 19.265625 -33 L 44.921875 -33 L 44.921875 -23.046875 L 19.265625 -23.046875 L 19.265625 -10.265625 Z M 49.34375 -10.265625 "/></g></g></g><g fill="#ffffff" fill-opacity="1"><g transform="translate(217.392001, 601.03259)"><g><path d="M 6.546875 -55.25 L 19.34375 -55.25 L 19.34375 -10.421875 L 47.046875 -10.421875 L 47.046875 0 L 6.546875 0 Z M 6.546875 -55.25 "/></g></g></g><g fill="#ffffff" fill-opacity="1"><g transform="translate(280.702487, 601.03259)"><g><path d="M 33.3125 0.953125 C 27.570312 0.953125 22.398438 -0.28125 17.796875 -2.75 C 13.191406 -5.226562 9.585938 -8.640625 6.984375 -12.984375 C 4.378906 -17.328125 3.078125 -22.207031 3.078125 -27.625 C 3.078125 -33.050781 4.378906 -37.929688 6.984375 -42.265625 C 9.585938 -46.609375 13.191406 -50.015625 17.796875 -52.484375 C 22.398438 -54.960938 27.570312 -56.203125 33.3125 -56.203125 C 39.050781 -56.203125 44.207031 -54.960938 48.78125 -52.484375 C 53.363281 -50.015625 56.96875 -46.609375 59.59375 -42.265625 C 62.226562 -37.929688 63.546875 -33.050781 63.546875 -27.625 C 63.546875 -22.207031 62.226562 -17.328125 59.59375 -12.984375 C 56.96875 -8.640625 53.363281 -5.226562 48.78125 -2.75 C 44.207031 -0.28125 39.050781 0.953125 33.3125 0.953125 Z M 33.3125 -9.953125 C 36.570312 -9.953125 39.515625 -10.703125 42.140625 -12.203125 C 44.773438 -13.703125 46.84375 -15.789062 48.34375 -18.46875 C 49.84375 -21.15625 50.59375 -24.207031 50.59375 -27.625 C 50.59375 -31.050781 49.84375 -34.101562 48.34375 -36.78125 C 46.84375 -39.46875 44.773438 -41.5625 42.140625 -43.0625 C 39.515625 -44.5625 36.570312 -45.3125 33.3125 -45.3125 C 30.050781 -45.3125 27.101562 -44.5625 24.46875 -43.0625 C 21.84375 -41.5625 19.78125 -39.46875 18.28125 -36.78125 C 16.78125 -34.101562 16.03125 -31.050781 16.03125 -27.625 C 16.03125 -24.207031 16.78125 -21.15625 18.28125 -18.46875 C 19.78125 -15.789062 21.84375 -13.703125 24.46875 -12.203125 C 27.101562 -10.703125 30.050781 -9.953125 33.3125 -9.953125 Z M 33.3125 -9.953125 "/></g></g></g><g fill="#2168d4" fill-opacity="1"><g transform="translate(362.964572, 601.03259)"><g><path d="M 47.125 -28.734375 C 50.28125 -27.734375 52.753906 -26.0625 54.546875 -23.71875 C 56.335938 -21.375 57.234375 -18.492188 57.234375 -15.078125 C 57.234375 -10.234375 55.347656 -6.507812 51.578125 -3.90625 C 47.816406 -1.300781 42.332031 0 35.125 0 L 6.546875 0 L 6.546875 -55.25 L 33.546875 -55.25 C 40.285156 -55.25 45.457031 -53.957031 49.0625 -51.375 C 52.664062 -48.800781 54.46875 -45.304688 54.46875 -40.890625 C 54.46875 -38.203125 53.820312 -35.804688 52.53125 -33.703125 C 51.238281 -31.597656 49.4375 -29.941406 47.125 -28.734375 Z M 19.265625 -45.625 L 19.265625 -32.59375 L 31.96875 -32.59375 C 35.125 -32.59375 37.515625 -33.144531 39.140625 -34.25 C 40.773438 -35.363281 41.59375 -37 41.59375 -39.15625 C 41.59375 -41.3125 40.773438 -42.925781 39.140625 -44 C 37.515625 -45.082031 35.125 -45.625 31.96875 -45.625 Z M 34.1875 -9.625 C 37.550781 -9.625 40.085938 -10.175781 41.796875 -11.28125 C 43.503906 -12.394531 44.359375 -14.109375 44.359375 -16.421875 C 44.359375 -20.992188 40.96875 -23.28125 34.1875 -23.28125 L 19.265625 -23.28125 L 19.265625 -9.625 Z M 34.1875 -9.625 "/></g></g></g><g fill="#2168d4" fill-opacity="1"><g transform="translate(438.983984, 601.03259)"><g><path d="M 6.546875 -55.25 L 19.34375 -55.25 L 19.34375 -10.421875 L 47.046875 -10.421875 L 47.046875 0 L 6.546875 0 Z M 6.546875 -55.25 "/></g></g></g><g fill="#2168d4" fill-opacity="1"><g transform="translate(502.294471, 601.03259)"><g><path d="M 6.546875 -55.25 L 19.34375 -55.25 L 19.34375 0 L 6.546875 0 Z M 6.546875 -55.25 "/></g></g></g><g fill="#2168d4" fill-opacity="1"><g transform="translate(543.818234, 601.03259)"><g><path d="M 18 -44.84375 L 0.3125 -44.84375 L 0.3125 -55.25 L 48.46875 -55.25 L 48.46875 -44.84375 L 30.78125 -44.84375 L 30.78125 0 L 18 0 Z M 18 -44.84375 "/></g></g></g><g fill="#2168d4" fill-opacity="1"><g transform="translate(608.233854, 601.03259)"><g><path d="M 51.3125 -10.421875 L 51.3125 0 L 3 0 L 3 -8.28125 L 33.3125 -44.84375 L 3.625 -44.84375 L 3.625 -55.25 L 50.125 -55.25 L 50.125 -46.96875 L 19.890625 -10.421875 Z M 51.3125 -10.421875 "/></g></g></g></svg>
